<svg xmlns="http://www.w3.org/2000/svg" width="38.637" height="27.192" viewBox="0 0 38.637 27.192">
  <g id="Group_79" data-name="Group 79" transform="translate(-1204.182 -526.015)">
    <g id="note-icon" transform="translate(1189.642 529)" opacity="0">
      <path id="Path_14" data-name="Path 14" d="M42.638,4.708V.605a.611.611,0,0,0-.246-.488.616.616,0,0,0-.542-.09L29.628,3.911a.606.606,0,0,0-.421.578V16.451a4.257,4.257,0,0,0-4.752.081,2.441,2.441,0,0,0,0,4.076,4.244,4.244,0,0,0,4.864,0,2.543,2.543,0,0,0,1.1-2.038V9.039l11.013-3.5V12.55a4.257,4.257,0,0,0-4.752.081,2.441,2.441,0,0,0,0,4.076,4.244,4.244,0,0,0,4.864,0,2.543,2.543,0,0,0,1.1-2.038V4.708ZM26.887,20.163c-1.258,0-2.32-.73-2.32-1.594s1.061-1.594,2.32-1.594,2.32.73,2.32,1.594S28.146,20.163,26.887,20.163Zm3.529-12.4V4.927l11.013-3.5V4.269Zm8.7,8.5c-1.258,0-2.32-.73-2.32-1.594s1.061-1.594,2.32-1.594,2.32.73,2.32,1.594S40.368,16.263,39.114,16.263Z" transform="translate(0 0)" fill="#2a3757"/>
    </g>
    <g id="Rectangle_44" data-name="Rectangle 44" transform="translate(1204.182 526.015)" fill="none" stroke="#2a3757" stroke-width="1">
      <rect width="27.188" height="27.192" rx="1" stroke="none"/>
      <rect x="0.5" y="0.5" width="26.188" height="26.192" rx="0.5" fill="none"/>
    </g>
    <g id="musical-note" transform="translate(1208.865 529.528)">
      <path id="Path_14-2" data-name="Path 14" d="M42.079,4.572V.588A.593.593,0,0,0,41.84.114a.6.6,0,0,0-.526-.087L29.446,3.8a.589.589,0,0,0-.409.561V15.976a4.133,4.133,0,0,0-4.614.078,2.371,2.371,0,0,0,0,3.958,4.12,4.12,0,0,0,4.723,0,2.469,2.469,0,0,0,1.065-1.979V8.778l10.694-3.4v6.811a4.133,4.133,0,0,0-4.614.078,2.371,2.371,0,0,0,0,3.958,4.12,4.12,0,0,0,4.723,0,2.469,2.469,0,0,0,1.065-1.979V4.572ZM26.785,19.582c-1.222,0-2.253-.709-2.253-1.548s1.031-1.548,2.253-1.548,2.253.709,2.253,1.548S28.007,19.582,26.785,19.582ZM30.212,7.543V4.785l10.694-3.4V4.146Zm8.445,8.251c-1.222,0-2.253-.709-2.253-1.548S37.435,12.7,38.657,12.7s2.253.709,2.253,1.548S39.874,15.793,38.657,15.793Z" transform="translate(-23.358 0)" fill="#2a3757"/>
    </g>
    <path id="Subtraction_14" data-name="Subtraction 14" d="M.586,22.249c-.195,0-.392-.005-.586-.015V21.061c.187.011.383.017.584.017a9.953,9.953,0,0,0,0-19.907c-.193,0-.389.006-.584.017V.015C.2,0,.4,0,.586,0a11.124,11.124,0,0,1,0,22.249Zm-.3-8.786A2.7,2.7,0,0,1,0,13.447V12.261A1.461,1.461,0,1,0,.29,9.368,1.455,1.455,0,0,0,0,9.4V8.213A2.629,2.629,0,0,1,.29,8.2a2.633,2.633,0,0,1,0,5.265Z" transform="translate(1231.11 528.357)" fill="#2a3757"/>
  </g>
</svg>
