<svg xmlns="http://www.w3.org/2000/svg" width="19.281" height="21.373" viewBox="0 0 19.281 21.373">
  <g id="note-icon" transform="translate(-23.358 0)">
    <path id="Path_14" data-name="Path 14" d="M42.638,4.708V.605a.611.611,0,0,0-.246-.488.616.616,0,0,0-.542-.09L29.628,3.911a.606.606,0,0,0-.421.578V16.451a4.257,4.257,0,0,0-4.752.081,2.441,2.441,0,0,0,0,4.076,4.244,4.244,0,0,0,4.864,0,2.543,2.543,0,0,0,1.1-2.038V9.039l11.013-3.5V12.55a4.257,4.257,0,0,0-4.752.081,2.441,2.441,0,0,0,0,4.076,4.244,4.244,0,0,0,4.864,0,2.543,2.543,0,0,0,1.1-2.038V4.708ZM26.887,20.163c-1.258,0-2.32-.73-2.32-1.594s1.061-1.594,2.32-1.594,2.32.73,2.32,1.594S28.146,20.163,26.887,20.163Zm3.529-12.4V4.927l11.013-3.5V4.269Zm8.7,8.5c-1.258,0-2.32-.73-2.32-1.594s1.061-1.594,2.32-1.594,2.32.73,2.32,1.594S40.368,16.263,39.114,16.263Z" transform="translate(0 0)" fill="#2a3757"/>
  </g>
</svg>
